Coordinates
version=1
nRows=11
nColumns=63
inDegrees=yes

Units are S.I. units (second, meters, Newtons, ...)
If the header above contains a line with 'inDegrees', this indicates whether rotational values are in degrees (yes) or radians (no).

endheader
time	pelvis_tilt	pelvis_list	pelvis_rotation	pelvis_tx	pelvis_ty	pelvis_tz	hip_flexion_r	hip_adduction_r	hip_rotation_r	knee_angle_r	knee_angle_r_beta	ankle_angle_r	subtalar_angle_r	mtp_angle_r	hip_flexion_l	hip_adduction_l	hip_rotation_l	knee_angle_l	knee_angle_l_beta	ankle_angle_l	subtalar_angle_l	mtp_angle_l	L5_S1_Flex_Ext	L5_S1_Lat_Bending	L5_S1_axial_rotation	L4_L5_Flex_Ext	L4_L5_Lat_Bending	L4_L5_axial_rotation	L3_L4_Flex_Ext	L3_L4_Lat_Bending	L3_L4_axial_rotation	L2_L3_Flex_Ext	L2_L3_Lat_Bending	L2_L3_axial_rotation	L1_L2_Flex_Ext	L1_L2_Lat_Bending	L1_L2_axial_rotation	L1_T12_Flex_Ext	L1_T12_Lat_Bending	L1_T12_axial_rotation	Abs_r3	Abs_r2	Abs_r1	Abs_t1	Abs_t2	neck_flexion	neck_bending	neck_rotation	arm_flex_r	arm_add_r	arm_rot_r	elbow_flex_r	pro_sup_r	wrist_flex_r	wrist_dev_r	arm_flex_l	arm_add_l	arm_rot_l	elbow_flex_l	pro_sup_l	wrist_flex_l	wrist_dev_l
      3.79166667	     -2.71449254	    -12.11394989	    107.06054363	      0.17047212	      0.32781537	      0.61922404	     -5.66704764	     -4.89366727	    -24.15495716	      6.82985343	      0.11920343	     17.34695254	     10.39624766	      0.00000000	     -5.34681179	      5.89616165	      6.47919676	      0.99309542	      0.01733278	     16.04376664	     -7.93961424	      0.00000000	      0.21681405	     -0.05497476	      0.21046357	      0.40264537	     -0.07311643	      0.22361754	      0.35620380	     -0.13366563	      0.22361754	      0.24779678	     -0.13366563	      0.18415562	      0.20133353	     -0.11210453	      0.17100165	      0.12388755	     -0.08515590	      0.15784767	      1.54868107	     -0.62188548	      1.17053522	      0.00000000	      0.00000000	     27.78566894	     -9.57491419	      4.30826672	     11.60268822	    -15.03596536	    112.81748930	     21.18780275	      3.43020078	     -0.27243625	      0.02313530	     13.17731304	     -4.58246386	    175.85854351	      2.30896744	     15.47718255	      6.32125567	     -3.19798774
      3.81250000	     -2.72610624	    -12.10828382	    106.75532753	      0.17134903	      0.32771869	      0.61843103	     -5.62612931	     -4.90783646	    -24.07755780	      6.91618007	      0.12071011	     17.56083269	     10.99261314	      0.00000000	     -5.36706411	      5.85960687	      5.18049883	      0.97733490	      0.01705771	     16.51503250	     -6.33955010	      0.00000000	      0.22090634	     -0.06997369	      0.26342194	      0.41024516	     -0.09306501	      0.27988581	      0.36292702	     -0.17013403	      0.27988581	      0.25247385	     -0.17013403	      0.23049419	      0.20513362	     -0.14269035	      0.21403032	      0.12622588	     -0.10838925	      0.19756645	      1.57791186	     -0.79155639	      1.46507378	      0.00000000	      0.00000000	     27.77585564	     -9.70332930	      4.68071914	     11.77839095	    -15.09702273	    113.31822445	     21.35059823	      3.25753841	     -0.01229920	     -0.21695548	     13.30102573	     -4.62622637	    177.68174424	      2.27237428	     16.46101849	      6.39740292	     -3.91978896
      3.83333333	     -2.65035075	    -12.10263432	    106.74572105	      0.17192209	      0.32777100	      0.61762195	     -5.62866085	     -4.74638588	    -23.64351389	      6.82271347	      0.11907881	     18.12389940	     11.28608659	      0.00000000	     -5.36030481	      5.72600818	      5.13658786	      0.95977671	      0.01675126	     16.61773035	     -6.30233649	      0.00000000	      0.22411844	     -0.07973210	      0.24923797	      0.41621036	     -0.10604369	      0.26481535	      0.36820419	     -0.19386062	      0.26481535	      0.25614497	     -0.19386062	      0.21808323	      0.20811639	     -0.16258969	      0.20250585	      0.12806128	     -0.12350502	      0.18692848	      1.60085563	     -0.90194542	      1.38618683	      0.00000000	      0.00000000	     27.72103049	     -9.82662924	      4.89083524	     11.85784574	    -15.10514927	    113.36132963	     21.48763267	      3.26226374	      0.06003838	     -0.35518105	     13.23723409	     -4.74591658	    177.81096715	      2.32239287	     16.55768694	      6.40739035	     -3.98760509
      3.85416667	     -2.46864334	    -12.08443622	    106.43612637	      0.17288537	      0.32804109	      0.61678244	     -5.44265979	     -4.54836924	    -22.91088385	      6.86725738	      0.11985625	     18.73355524	     11.76642382	      0.00000000	     -5.32504064	      5.50810356	      3.58247511	      0.94800792	      0.01654586	     16.96485674	     -4.62928825	      0.00000000	      0.22169637	     -0.06610051	      0.25417127	      0.41171234	     -0.08791368	      0.27005698	      0.36422497	     -0.16071678	      0.27005698	      0.25337679	     -0.16071678	      0.22239986	      0.20586725	     -0.13479216	      0.20651416	      0.12667731	     -0.10238969	      0.19062845	      1.58355503	     -0.74774217	      1.41362437	      0.00000000	      0.00000000	     27.66133344	     -9.12485761	      6.97380617	     12.39966856	    -15.11229885	    115.81269149	     21.79182939	      2.94325021	      0.21083288	     -1.23825385	     12.94503757	     -4.85313263	    178.71333249	      2.06596182	     17.03872578	      5.44160615	     -4.71107907
      3.87500000	     -2.07564890	    -12.13166599	    106.43480809	      0.17344048	      0.32843886	      0.61611023	     -5.15022605	     -4.12687669	    -22.37232378	      6.87077455	      0.11991764	     19.13788694	     11.93888338	      0.00000000	     -5.14685570	      5.09536928	      3.12476059	      0.97984047	      0.01710144	     17.13772056	     -4.23779521	      0.00000000	      0.22683051	     -0.03585110	      0.23794614	      0.42124693	     -0.04768197	      0.25281777	      0.37265984	     -0.08716838	      0.25281777	      0.25924458	     -0.08716838	      0.20820287	      0.21063481	     -0.07310757	      0.19333124	      0.12961095	     -0.05553336	      0.17845960	      1.62022762	     -0.40555487	      1.32338504	      0.00000000	      0.00000000	     27.60965195	     -8.98086275	      8.04299046	     12.55874409	    -15.28825054	    116.28211399	     22.13586306	      2.90067866	      0.13521316	     -1.47505666	     12.71374438	     -4.86216030	    178.56494362	      1.93319507	     16.86949487	      5.04194089	     -4.54068278
      3.89583333	     -1.74583897	    -12.19645895	    106.55598338	      0.17410547	      0.32922972	      0.61563800	     -4.79101358	     -3.71277636	    -21.25878905	      6.94453820	      0.12120506	     19.20505972	     10.72712674	      0.00000000	     -4.88689673	      4.70150221	      0.98451735	      1.11882300	      0.01952715	     17.62138510	     -1.26923092	      0.00000000	      0.21319492	     -0.01363141	      0.14987489	      0.39592429	     -0.01812978	      0.15924207	      0.35025794	     -0.03314342	      0.15924207	      0.24366048	     -0.03314342	      0.13114052	      0.19797280	     -0.02779718	      0.12177334	      0.12181958	     -0.02111506	      0.11240616	      1.52283001	     -0.15420128	      0.83355915	      0.00000000	      0.00000000	     27.56297577	     -8.44954677	      9.51354411	     13.06793935	    -15.18917613	    118.17766474	     22.30399443	      2.59247701	     -0.03918132	     -1.60418205	     12.47485380	     -4.97660571	    177.86423576	      1.99570510	     16.23877317	      4.30699279	     -4.22867477
      3.91666667	     -1.58768277	    -12.23703653	    106.60397575	      0.17511466	      0.33012656	      0.61510750	     -4.55390793	     -3.50189915	    -21.26641103	      6.97066802	      0.12166111	     19.20061334	     10.70667871	      0.00000000	     -4.74296182	      4.48975972	      0.93166312	      1.16852681	      0.02039464	     17.50478951	     -1.26834242	      0.00000000	      0.17549851	     -0.01914100	      0.14360079	      0.32591828	     -0.02545754	      0.15257584	      0.28832650	     -0.04653944	      0.15257584	      0.20057725	     -0.04653944	      0.12565069	      0.16296792	     -0.03903234	      0.11667564	      0.10027985	     -0.02964942	      0.10770060	      1.25356830	     -0.21652688	      0.79866453	      0.00000000	      0.00000000	     27.46556593	     -8.50450024	      9.56055303	     13.12759927	    -15.13193982	    118.15026061	     22.31879492	      2.59465053	     -0.05698603	     -1.59430013	     12.43449791	     -5.13140920	    177.82392406	      2.00670260	     16.19438625	      4.30431074	     -4.21816404
      3.93750000	     -1.04690681	    -12.45128886	    107.15482882	      0.17508620	      0.33075678	      0.61510932	     -3.88918724	     -2.98331109	    -20.78836905	      7.43585906	      0.12978022	     18.65489089	      8.73208543	      0.00000000	     -4.03815891	      3.95913472	      0.61746797	      1.67439873	      0.02922377	     17.72347043	     -0.57355642	      0.00000000	      0.17710504	      0.02542293	     -0.01943889	      0.32890177	      0.03381249	     -0.02065382	      0.29096587	      0.06181330	     -0.02065382	      0.20241335	      0.06181330	     -0.01700903	      0.16445974	      0.05184243	     -0.01579410	      0.10119782	      0.03938011	     -0.01457917	      1.26504359	      0.28758923	     -0.10811326	      0.00000000	      0.00000000	     27.34769248	     -8.44653296	     10.41414827	     13.30747191	    -15.28546593	    117.70517438	     22.49328879	      2.80677526	     -0.70376800	     -1.07833168	     12.00240261	     -5.30495559	    175.16603461	      2.21975078	     13.54812745	      4.67922358	     -3.98077260
      3.95833333	     -0.80083470	    -12.68815008	    107.35002822	      0.17546668	      0.33097984	      0.61506282	     -3.30849154	     -2.82727702	    -20.58964473	      7.91474299	      0.13813832	     18.11262194	      7.34337663	      0.00000000	     -3.38988141	      3.76886890	      0.48629298	      2.20410350	      0.03846886	     18.01701352	     -0.40735415	      0.00000000	      0.16698111	      0.03468034	     -0.08445920	      0.31010061	      0.04612485	     -0.08973790	      0.27433326	      0.08432177	     -0.08973790	      0.19084271	      0.08432177	     -0.07390180	      0.15505866	      0.07072014	     -0.06862310	      0.09541300	      0.05371984	     -0.06334440	      1.19272935	      0.39231090	     -0.46973675	      0.00000000	      0.00000000	     27.18019273	     -8.47229858	     10.67430272	     13.36388298	    -15.32745058	    117.35291765	     22.49118524	      2.87321626	     -0.92462392	     -1.18322581	     11.71612959	     -5.44276599	    174.03814617	      2.30561629	     12.41848531	      5.56451742	     -4.00546536
      3.97916667	     -0.55973771	    -12.93713265	    107.54078112	      0.17573570	      0.33067660	      0.61496069	     -2.72356791	     -2.67410961	    -20.18009297	      8.43330620	      0.14718896	     17.49848525	      5.56231988	      0.00000000	     -2.68374390	      3.59887441	      0.49425666	      2.83769285	      0.04952708	     18.51345322	     -0.36852301	      0.00000000	      0.15936533	      0.04610250	     -0.14355704	      0.29595736	      0.06131632	     -0.15252936	      0.26182130	      0.11209362	     -0.15252936	      0.18213864	      0.11209362	     -0.12561241	      0.14798665	      0.09401222	     -0.11664010	      0.09106135	      0.07141277	     -0.10766778	      1.13833063	      0.52152069	     -0.79842121	      0.00000000	      0.00000000	     27.13327504	     -8.37904664	     11.00476378	     13.36752025	    -15.27811697	    117.05670487	     22.30642424	      3.01477694	     -1.07582773	     -1.36090843	     11.47158347	     -5.42670864	    173.45115282	      2.51307547	     11.72473005	      6.77051035	     -3.60203135
      4.00000000	     -0.29608928	    -13.32166072	    107.79915368	      0.17577273	      0.32973292	      0.61495240	     -1.98329002	     -2.60929536	    -20.45461775	      9.01739847	      0.15738329	     17.22229334	      4.83383994	      0.00000000	     -1.72413128	      3.47125106	      0.61902844	      3.66457080	      0.06395883	     19.25332339	     -0.52818832	      0.00000000	      0.17020003	      0.05810210	     -0.17049526	      0.31607847	      0.07727580	     -0.18115121	      0.27962162	      0.14126945	     -0.18115121	      0.19452161	      0.14126945	     -0.14918335	      0.15804774	      0.11848181	     -0.13852740	      0.09725229	      0.09000016	     -0.12787144	      1.21572176	      0.65726261	     -0.94824348	      0.00000000	      0.00000000	     27.26544240	     -8.41469984	     11.10284251	     13.21961916	    -15.15205087	    116.87558598	     21.90440255	      3.21849167	     -1.04263370	     -1.80412272	     11.28167644	     -5.25952512	    173.65018055	      2.84322500	     11.84691378	      7.19149819	     -3.41612188
